<svg xmlns="http://www.w3.org/2000/svg" viewBox="-6 -6 90 73"><path fill="#141414" d="M60.44,3.57c-5.87-2.38-12.9-3.57-21.08-3.57s-15.23,1.19-21.14,3.57c-5.9,2.38-10.41,5.86-13.53,10.42C1.56,18.56,0,24.02,0,30.37s1.56,12.01,4.69,16.64c3.12,4.62,7.63,8.15,13.53,10.59,5.9,2.44,12.95,3.66,21.14,3.66s15.22-1.22,21.08-3.66c5.86-2.44,10.36-5.97,13.48-10.59,3.12-4.63,4.69-10.17,4.69-16.64s-1.56-11.81-4.69-16.38c-3.13-4.56-7.62-8.04-13.48-10.42ZM60.28,50.19c-4.93,4.65-11.9,6.98-20.93,6.98s-16.1-2.33-21.03-6.98c-4.93-4.65-7.39-11.26-7.39-19.82s2.47-14.94,7.39-19.48c4.93-4.54,11.94-6.81,21.03-6.81s16.09,2.28,20.98,6.85c4.9,4.56,7.34,11.04,7.34,19.44s-2.47,15.18-7.39,19.82Z"/></svg>
