<?xml version="1.0"?>
<svg id="Branding" xmlns="http://www.w3.org/2000/svg" viewBox="0 0 283.46 78.17">
  <path fill="#F4F1EC" d="M60.44,3.57c-5.87-2.38-12.9-3.57-21.08-3.57s-15.23,1.19-21.14,3.57c-5.9,2.38-10.41,5.86-13.53,10.42C1.56,18.56,0,24.02,0,30.37s1.56,12.01,4.69,16.64c3.12,4.62,7.63,8.15,13.53,10.59,5.9,2.44,12.95,3.66,21.14,3.66s15.22-1.22,21.08-3.66c5.86-2.44,10.36-5.97,13.48-10.59,3.12-4.63,4.69-10.17,4.69-16.64s-1.56-11.81-4.69-16.38c-3.13-4.56-7.62-8.04-13.48-10.42ZM60.28,50.19c-4.93,4.65-11.9,6.98-20.93,6.98s-16.1-2.33-21.03-6.98c-4.93-4.65-7.39-11.26-7.39-19.82s2.47-14.94,7.39-19.48c4.93-4.54,11.94-6.81,21.03-6.81s16.09,2.28,20.98,6.85c4.9,4.56,7.34,11.04,7.34,19.44s-2.47,15.18-7.39,19.82Z"/>
  <path fill="#F4F1EC" d="M213.47.84l-27.21,45.54L156.26.84h-18.77v46.21L93.14.84h-10.93v59.56h9.16V8.59l49.87,51.81h5.41V4.52l29.12,44.47c1.62,2.41,2.44,5.07,2.44,7.89s-1.08,5.85-3.2,8.65c-2.07,2.74-4.8,5.01-8.1,6.74-2.66,1.4-5.35,2.23-8,2.5-1.66.34-3.43.53-5.27.53-2.07,0-4.06-.24-5.91-.67v2.08c.61.21,1.2.39,1.86.55,2.52.6,5.24.91,8.09.91,10.36,0,19.68-6.79,27.7-20.2l31.91-53.44,25.66,26.78-30.4,29.1h7.81l26.24-25.18,24.15,25.18h12.71l-30.19-31.57L282.42.84h-7.71l-25.19,24.08L226.51.84h-13.04Z"/>
</svg>
